<?xml version="1.0" encoding="UTF-8" standalone="no" ?>
<!DOCTYPE svg PUBLIC "-//W3C//DTD SVG 1.1//EN" "http://www.w3.org/Graphics/SVG/1.1/DTD/svg11.dtd">
<svg xmlns="http://www.w3.org/2000/svg" xmlns:xlink="http://www.w3.org/1999/xlink" version="1.1" width="1080" height="1080" viewBox="0 0 1080 1080" xml:space="preserve">
<desc>Created with Fabric.js 5.2.4</desc>
<defs>
</defs>
<g transform="matrix(1 0 0 1 540 540)" id="584e06e8-a69e-4741-b61e-c0666fc7de20"  >
</g>
<g transform="matrix(1 0 0 1 540 540)" id="3d043f90-d9d0-4220-9595-54ae3c8686a0"  >
<rect style="stroke: none; stroke-width: 1; stroke-dasharray: none; stroke-linecap: butt; stroke-dashoffset: 0; stroke-linejoin: miter; stroke-miterlimit: 4; fill: rgb(255,255,255); fill-rule: nonzero; opacity: 1; visibility: hidden;" vector-effect="non-scaling-stroke"  x="-540" y="-540" rx="0" ry="0" width="1080" height="1080" />
</g>
<g transform="matrix(1 0 0 1 552.67 527.2)"  >
<path style="stroke: none; stroke-width: 1; stroke-dasharray: none; stroke-linecap: butt; stroke-dashoffset: 0; stroke-linejoin: miter; stroke-miterlimit: 4; fill: rgb(0,0,0); fill-rule: nonzero; opacity: 1;" vector-effect="non-scaling-stroke"  transform=" translate(-45.17, -37.22)" d="M 46.73 32.13 C 46.699999999999996 31.770000000000003 46.379999999999995 31.51 46.029999999999994 31.53 C 45.669999999999995 31.560000000000002 45.39999999999999 31.87 45.42999999999999 32.230000000000004 C 45.46999999999999 32.730000000000004 45.489999999999995 33.24 45.489999999999995 33.760000000000005 C 45.489999999999995 36.660000000000004 44.839999999999996 39.49000000000001 43.60999999999999 41.96000000000001 C 43.449999999999996 42.28000000000001 43.57999999999999 42.68000000000001 43.90999999999999 42.84000000000001 C 43.99999999999999 42.89000000000001 44.09999999999999 42.91000000000001 44.19999999999999 42.91000000000001 C 44.43999999999999 42.91000000000001 44.66999999999999 42.78000000000001 44.78999999999999 42.55000000000001 C 46.10999999999999 39.90000000000001 46.79999999999999 36.87000000000001 46.79999999999999 33.77000000000001 C 46.8 33.21 46.77 32.66 46.73 32.13 z" stroke-linecap="round" />
</g>
<g transform="matrix(1 0 0 1 539.8 512.43)"  >
<path style="stroke: none; stroke-width: 1; stroke-dasharray: none; stroke-linecap: butt; stroke-dashoffset: 0; stroke-linejoin: miter; stroke-miterlimit: 4; fill: rgb(0,0,0); fill-rule: nonzero; opacity: 1;" vector-effect="non-scaling-stroke"  transform=" translate(-32.29, -22.43)" d="M 32.28 16.49 C 26.29 16.49 20.990000000000002 20.77 18.78 27.4 C 18.67 27.74 18.85 28.119999999999997 19.19 28.229999999999997 C 19.53 28.349999999999998 19.91 28.159999999999997 20.02 27.819999999999997 C 22.04 21.739999999999995 26.86 17.809999999999995 32.28 17.809999999999995 C 37.75 17.809999999999995 42.57 21.779999999999994 44.57 27.929999999999993 C 44.660000000000004 28.209999999999994 44.92 28.379999999999992 45.19 28.379999999999992 C 45.26 28.379999999999992 45.33 28.36999999999999 45.39 28.34999999999999 C 45.730000000000004 28.23999999999999 45.92 27.86999999999999 45.81 27.519999999999992 C 43.64 20.82 38.32 16.49 32.28 16.49 z" stroke-linecap="round" />
</g>
<g transform="matrix(1 0 0 1 539.71 505.65)"  >
<path style="stroke: none; stroke-width: 1; stroke-dasharray: none; stroke-linecap: butt; stroke-dashoffset: 0; stroke-linejoin: miter; stroke-miterlimit: 4; fill: rgb(0,0,0); fill-rule: nonzero; opacity: 1;" vector-effect="non-scaling-stroke"  transform=" translate(-32.21, -15.66)" d="M 21.68 18.55 C 21.84 18.55 22 18.490000000000002 22.13 18.37 C 25.08 15.57 28.63 14.09 32.39 14.09 C 35.99 14.09 39.42 15.46 42.3 18.04 C 42.57 18.279999999999998 42.989999999999995 18.259999999999998 43.23 17.99 C 43.47 17.72 43.449999999999996 17.31 43.18 17.06 C 40.05 14.249999999999998 36.32 12.77 32.39 12.77 C 28.29 12.77 24.42 14.37 21.22 17.41 C 20.959999999999997 17.66 20.95 18.07 21.2 18.34 C 21.34 18.49 21.51 18.55 21.68 18.55 z" stroke-linecap="round" />
</g>
<g transform="matrix(1 0 0 1 538.15 522.67)"  >
<path style="stroke: none; stroke-width: 1; stroke-dasharray: none; stroke-linecap: butt; stroke-dashoffset: 0; stroke-linejoin: miter; stroke-miterlimit: 4; fill: rgb(0,0,0); fill-rule: nonzero; opacity: 1;" vector-effect="non-scaling-stroke"  transform=" translate(-30.65, -32.68)" d="M 42.95 30.28 C 42.940000000000005 30.200000000000003 42.18 22.32 33.72 20.43 C 27.799999999999997 19.11 24.7 22.939999999999998 23.38 25.33 C 22.83 26.319999999999997 22.48 27.459999999999997 22.29 28.81 C 22.029999999999998 30.669999999999998 21.419999999999998 32.01 20.52 32.67 C 19.73 33.25 18.97 33.14 18.93 33.14 C 18.57 33.08 18.24 33.31 18.169999999999998 33.660000000000004 C 18.099999999999998 34.02 18.34 34.36000000000001 18.689999999999998 34.43000000000001 C 18.74 34.440000000000005 19.999999999999996 34.660000000000004 21.259999999999998 33.760000000000005 C 22.49 32.88 23.269999999999996 31.270000000000003 23.58 29.000000000000007 C 23.74 27.810000000000006 24.049999999999997 26.820000000000007 24.52 25.970000000000006 C 25.919999999999998 23.430000000000007 28.6 20.630000000000006 33.42 21.710000000000008 C 40.92 23.390000000000008 41.6 30.110000000000007 41.64 30.480000000000008 C 41.65 30.520000000000007 42.52 34.580000000000005 40.1 39.45000000000001 C 39.75 40.16000000000001 39.58 40.86000000000001 39.6 41.540000000000006 C 39.63 42.650000000000006 40.11 44.17000000000001 42.19 45.14000000000001 C 42.28 45.18000000000001 42.37 45.20000000000001 42.47 45.20000000000001 C 42.72 45.20000000000001 42.949999999999996 45.06000000000001 43.06 44.82000000000001 C 43.21 44.49000000000001 43.07 44.10000000000001 42.74 43.95000000000001 C 41.550000000000004 43.40000000000001 40.940000000000005 42.57000000000001 40.910000000000004 41.50000000000001 C 40.900000000000006 41.040000000000006 41.02 40.540000000000006 41.28 40.03000000000001 C 43.92 34.73 42.97 30.38 42.95 30.28 z" stroke-linecap="round" />
</g>
<g transform="matrix(1 0 0 1 536.84 524.84)"  >
<path style="stroke: none; stroke-width: 1; stroke-dasharray: none; stroke-linecap: butt; stroke-dashoffset: 0; stroke-linejoin: miter; stroke-miterlimit: 4; fill: rgb(0,0,0); fill-rule: nonzero; opacity: 1;" vector-effect="non-scaling-stroke"  transform=" translate(-29.33, -34.85)" d="M 38.86 28.16 C 38.26 26.89 37.41 25.88 36.33 25.14 C 34.589999999999996 23.95 32.41 23.63 30.349999999999998 24.25 C 28.15 24.92 26.33 26.61 25.47 28.78 C 25.11 29.69 24.869999999999997 30.67 24.759999999999998 31.68 C 24.279999999999998 36.09 19.81 36.54 19.619999999999997 36.56 C 19.259999999999998 36.59 18.99 36.910000000000004 19.019999999999996 37.27 C 19.049999999999997 37.63 19.369999999999997 37.89 19.729999999999997 37.870000000000005 C 19.789999999999996 37.86000000000001 25.459999999999997 37.330000000000005 26.059999999999995 31.830000000000005 C 26.159999999999997 30.940000000000005 26.369999999999994 30.080000000000005 26.689999999999994 29.270000000000007 C 27.399999999999995 27.480000000000008 28.909999999999993 26.070000000000007 30.729999999999993 25.510000000000005 C 32.42999999999999 24.990000000000006 34.14999999999999 25.240000000000006 35.57999999999999 26.220000000000006 C 36.46999999999999 26.830000000000005 37.169999999999995 27.670000000000005 37.65999999999999 28.720000000000006 C 38.46999999999999 30.450000000000006 38.54999999999999 32.480000000000004 37.87999999999999 34.46000000000001 C 36.59999999999999 38.21000000000001 35.34999999999999 42.39000000000001 36.62999999999999 44.52000000000001 C 37.02999999999999 45.19000000000001 37.679999999999986 45.62000000000001 38.48999999999999 45.75000000000001 C 38.52999999999999 45.760000000000005 38.55999999999999 45.760000000000005 38.59999999999999 45.760000000000005 C 38.91999999999999 45.760000000000005 39.18999999999999 45.53000000000001 39.249999999999986 45.21000000000001 C 39.30999999999999 44.85000000000001 39.069999999999986 44.52000000000001 38.70999999999999 44.46000000000001 C 38.26999999999999 44.39000000000001 37.969999999999985 44.190000000000005 37.759999999999984 43.85000000000001 C 36.68999999999998 42.07000000000001 38.33999999999998 37.220000000000006 39.12999999999998 34.89000000000001 C 39.91 32.59 39.81 30.2 38.86 28.16 z" stroke-linecap="round" />
</g>
<g transform="matrix(1 0 0 1 535.76 528.33)"  >
<path style="stroke: none; stroke-width: 1; stroke-dasharray: none; stroke-linecap: butt; stroke-dashoffset: 0; stroke-linejoin: miter; stroke-miterlimit: 4; fill: rgb(246,121,246); fill-rule: nonzero; opacity: 1;" vector-effect="non-scaling-stroke"  transform=" translate(-28.26, -38.34)" d="M 26.35 47.37 C 36.24 43.64 36.35 33.12 36.35 33.089999999999996 C 36.57 31.279999999999998 36.1 27.689999999999998 32.81 27.08 C 31.770000000000003 26.88 30.87 27.09 30.130000000000003 27.689999999999998 C 28.450000000000003 29.06 28.37 32.04 28.37 32.22 C 28.8 39.35 21.060000000000002 39.95 20.740000000000002 39.98 C 20.380000000000003 40 20.110000000000003 40.32 20.130000000000003 40.68 C 20.150000000000002 41.04 20.46 41.31 20.830000000000002 41.29 C 20.92 41.28 30.19 40.589999999999996 29.69 32.2 C 29.71 31.51 29.970000000000002 29.53 30.970000000000002 28.71 C 31.400000000000002 28.36 31.930000000000003 28.26 32.580000000000005 28.37 C 35.49000000000001 28.900000000000002 35.07000000000001 32.77 35.050000000000004 33.01 C 35.050000000000004 33.41 34.92 42.739999999999995 25.92 46.129999999999995 C 25.860000000000003 46.15 25.3 46.339999999999996 24.810000000000002 46.779999999999994 C 24.090000000000003 47.42999999999999 23.860000000000003 48.3 24.17 49.23 C 24.26 49.5 24.520000000000003 49.68 24.790000000000003 49.68 C 24.860000000000003 49.68 24.930000000000003 49.67 25.000000000000004 49.65 C 25.340000000000003 49.54 25.530000000000005 49.16 25.410000000000004 48.82 C 25.08 47.86 26.11 47.45 26.35 47.37 z" stroke-linecap="round" />
</g>
<g transform="matrix(1 0 0 1 534.97 527.67)"  >
<path style="stroke: none; stroke-width: 1; stroke-dasharray: none; stroke-linecap: butt; stroke-dashoffset: 0; stroke-linejoin: miter; stroke-miterlimit: 4; fill: rgb(0,0,0); fill-rule: nonzero; opacity: 1;" vector-effect="non-scaling-stroke"  transform=" translate(-27.48, -37.68)" d="M 33.34 30.79 C 33.330000000000005 30.439999999999998 33.040000000000006 30.15 32.68000000000001 30.15 C 32.67000000000001 30.15 32.67000000000001 30.15 32.660000000000004 30.15 C 32.300000000000004 30.16 32.010000000000005 30.459999999999997 32.02 30.83 C 32.370000000000005 42.03 22.560000000000002 43.83 22.150000000000006 43.91 C 21.790000000000006 43.97 21.550000000000004 44.309999999999995 21.610000000000007 44.669999999999995 C 21.660000000000007 44.989999999999995 21.940000000000005 45.21999999999999 22.260000000000005 45.21999999999999 C 22.300000000000004 45.21999999999999 22.330000000000005 45.21999999999999 22.370000000000005 45.209999999999994 C 22.49 45.18 33.72 43.16 33.34 30.79 z" stroke-linecap="round" />
</g>
<g transform="matrix(1 0 0 1 541.63 538.84)"  >
<path style="stroke: none; stroke-width: 1; stroke-dasharray: none; stroke-linecap: butt; stroke-dashoffset: 0; stroke-linejoin: miter; stroke-miterlimit: 4; fill: rgb(0,0,0); fill-rule: nonzero; opacity: 1;" vector-effect="non-scaling-stroke"  transform=" translate(-34.13, -48.85)" d="M 41.38 47.44 C 39.720000000000006 48.919999999999995 37.77 47.919999999999995 37.43 47.72 C 36.94 47.24 36.47 46.839999999999996 36.05 46.519999999999996 C 34.72 45.51 32.849999999999994 45.72 31.779999999999998 46.99999999999999 C 29.499999999999996 49.72999999999999 26.31 50.50999999999999 26.279999999999998 50.519999999999996 C 25.929999999999996 50.599999999999994 25.709999999999997 50.959999999999994 25.79 51.309999999999995 C 25.86 51.60999999999999 26.13 51.81999999999999 26.43 51.81999999999999 C 26.48 51.81999999999999 26.53 51.809999999999995 26.58 51.79999999999999 C 26.729999999999997 51.76999999999999 30.22 50.91999999999999 32.79 47.84999999999999 C 33.4 47.11999999999999 34.5 46.999999999999986 35.26 47.569999999999986 C 35.66 47.86999999999998 36.1 48.259999999999984 36.58 48.719999999999985 C 36.61 48.749999999999986 36.65 48.77999999999999 36.69 48.79999999999998 C 37.73 49.45999999999998 40.239999999999995 50.23999999999998 42.269999999999996 48.41999999999998 C 42.54 48.17999999999998 42.559999999999995 47.759999999999984 42.31999999999999 47.48999999999998 C 42.07 47.22 41.65 47.2 41.38 47.44 z" stroke-linecap="round" />
</g>
<g transform="matrix(1 0 0 1 541.61 541.85)"  >
<path style="stroke: none; stroke-width: 1; stroke-dasharray: none; stroke-linecap: butt; stroke-dashoffset: 0; stroke-linejoin: miter; stroke-miterlimit: 4; fill: rgb(0,0,0); fill-rule: nonzero; opacity: 1;" vector-effect="non-scaling-stroke"  transform=" translate(-34.11, -51.86)" d="M 37.85 51.1 C 34.1 49.4 30.42 51.910000000000004 30.26 52.02 C 29.96 52.230000000000004 29.89 52.64 30.1 52.93 C 30.23 53.11 30.43 53.21 30.64 53.21 C 30.77 53.21 30.900000000000002 53.17 31.02 53.09 C 31.05 53.07 34.23 50.88 37.31 52.290000000000006 C 37.64 52.440000000000005 38.03 52.290000000000006 38.18 51.96000000000001 C 38.33 51.64 38.18 51.25 37.85 51.1 z" stroke-linecap="round" />
</g>
<g transform="matrix(1 0 0 1 525.3 505.12)"  >
<path style="stroke: none; stroke-width: 1; stroke-dasharray: none; stroke-linecap: butt; stroke-dashoffset: 0; stroke-linejoin: miter; stroke-miterlimit: 4; fill: rgb(0,0,0); fill-rule: nonzero; opacity: 1;" vector-effect="non-scaling-stroke"  transform=" translate(-17.8, -15.13)" d="M 16.1 17.48 C 16.46 17.48 16.76 17.19 16.76 16.82 L 16.76 14.09 L 19.490000000000002 14.09 C 19.85 14.09 20.150000000000002 13.8 20.150000000000002 13.43 C 20.150000000000002 13.059999999999999 19.860000000000003 12.77 19.490000000000002 12.77 L 16.1 12.77 C 15.740000000000002 12.77 15.440000000000001 13.059999999999999 15.440000000000001 13.43 L 15.440000000000001 16.81 C 15.44 17.18 15.74 17.48 16.1 17.48 z" stroke-linecap="round" />
</g>
<g transform="matrix(1 0 0 1 554.65 540.87)"  >
<path style="stroke: none; stroke-width: 1; stroke-dasharray: none; stroke-linecap: butt; stroke-dashoffset: 0; stroke-linejoin: miter; stroke-miterlimit: 4; fill: rgb(0,0,0); fill-rule: nonzero; opacity: 1;" vector-effect="non-scaling-stroke"  transform=" translate(-47.15, -50.88)" d="M 48.85 48.52 C 48.49 48.52 48.190000000000005 48.81 48.190000000000005 49.18 L 48.190000000000005 51.91 L 45.46000000000001 51.91 C 45.10000000000001 51.91 44.80000000000001 52.199999999999996 44.80000000000001 52.56999999999999 C 44.80000000000001 52.92999999999999 45.09000000000001 53.22999999999999 45.46000000000001 53.22999999999999 L 48.84000000000001 53.22999999999999 C 49.20000000000001 53.22999999999999 49.50000000000001 52.93999999999999 49.50000000000001 52.56999999999999 L 49.50000000000001 49.18999999999999 C 49.51 48.82 49.22 48.52 48.85 48.52 z" stroke-linecap="round" />
</g>
<g transform="matrix(1 0 0 1 554.66 505.13)"  >
<path style="stroke: none; stroke-width: 1; stroke-dasharray: none; stroke-linecap: butt; stroke-dashoffset: 0; stroke-linejoin: miter; stroke-miterlimit: 4; fill: rgb(0,0,0); fill-rule: nonzero; opacity: 1;" vector-effect="non-scaling-stroke"  transform=" translate(-47.16, -15.13)" d="M 48.85 12.78 L 45.47 12.78 C 45.11 12.78 44.81 13.069999999999999 44.81 13.44 C 44.81 13.81 45.1 14.1 45.47 14.1 L 48.199999999999996 14.1 L 48.199999999999996 16.83 C 48.199999999999996 17.189999999999998 48.489999999999995 17.49 48.85999999999999 17.49 C 49.21999999999999 17.49 49.51999999999999 17.2 49.51999999999999 16.83 L 49.51999999999999 13.45 C 49.51 13.08 49.22 12.78 48.85 12.78 z" stroke-linecap="round" />
</g>
<g transform="matrix(1 0 0 1 525.28 540.86)"  >
<path style="stroke: none; stroke-width: 1; stroke-dasharray: none; stroke-linecap: butt; stroke-dashoffset: 0; stroke-linejoin: miter; stroke-miterlimit: 4; fill: rgb(0,0,0); fill-rule: nonzero; opacity: 1;" vector-effect="non-scaling-stroke"  transform=" translate(-17.78, -50.87)" d="M 19.48 51.91 L 16.75 51.91 L 16.75 49.18 C 16.75 48.82 16.46 48.52 16.09 48.52 C 15.73 48.52 15.43 48.81 15.43 49.18 L 15.43 52.56 C 15.43 52.92 15.719999999999999 53.22 16.09 53.22 L 19.47 53.22 C 19.83 53.22 20.13 52.93 20.13 52.56 C 20.14 52.2 19.84 51.91 19.48 51.91 z" stroke-linecap="round" />
</g>
<g transform="matrix(1 0 0 1 516.13 517.13)"  >
<path style="stroke: none; stroke-width: 1; stroke-dasharray: none; stroke-linecap: butt; stroke-dashoffset: 0; stroke-linejoin: miter; stroke-miterlimit: 4; fill: rgb(21,178,21); fill-rule: nonzero; opacity: 1;" vector-effect="non-scaling-stroke"  transform=" translate(-8.63, -27.14)" d="M 8.63 19.51 C 4.42 19.51 1 22.93 1 27.14 C 1 31.35 4.42 34.77 8.629999999999999 34.77 C 12.849999999999998 34.77 16.259999999999998 31.35 16.259999999999998 27.140000000000004 C 16.259999999999998 22.930000000000007 12.85 19.51 8.63 19.51 z M 11.89 25.61 L 7.94 29.56 C 7.82 29.68 7.66 29.74 7.5 29.74 C 7.34 29.74 7.18 29.68 7.06 29.56 L 5.369999999999999 27.869999999999997 C 5.129999999999999 27.63 5.129999999999999 27.229999999999997 5.369999999999999 26.99 C 5.609999999999999 26.75 6.009999999999999 26.75 6.249999999999999 26.99 L 7.499999999999999 28.24 L 11.009999999999998 24.729999999999997 C 11.249999999999998 24.49 11.649999999999999 24.49 11.889999999999999 24.729999999999997 C 12.13 24.97 12.13 25.37 11.89 25.61 z" stroke-linecap="round" />
</g>
<g transform="matrix(1 0 0 1 565.17 518.87)"  >
<path style="stroke: none; stroke-width: 1; stroke-dasharray: none; stroke-linecap: butt; stroke-dashoffset: 0; stroke-linejoin: miter; stroke-miterlimit: 4; fill: rgb(0,0,0); fill-rule: nonzero; opacity: 1;" vector-effect="non-scaling-stroke"  transform=" translate(-57.67, -28.88)" d="M 55.81 29.92 C 55.81 28.89 56.650000000000006 28.060000000000002 57.68 28.060000000000002 C 58.71 28.060000000000002 59.54 28.900000000000002 59.54 29.92 L 59.54 32.74 L 62.58 32.74 L 62.58 29.92 C 62.58 27.21 60.379999999999995 25.01 57.67 25.01 C 54.96 25.01 52.760000000000005 27.21 52.760000000000005 29.92 L 52.760000000000005 32.74 L 55.800000000000004 32.74 L 55.800000000000004 29.92 z" stroke-linecap="round" />
</g>
<g transform="matrix(1 0 0 1 565.18 529.82)"  >
<path style="stroke: none; stroke-width: 1; stroke-dasharray: none; stroke-linecap: butt; stroke-dashoffset: 0; stroke-linejoin: miter; stroke-miterlimit: 4; fill: rgb(0,0,0); fill-rule: nonzero; opacity: 1;" vector-effect="non-scaling-stroke"  transform=" translate(-57.67, -39.83)" d="M 50.35 34.05 L 50.35 45.62 L 65 45.62 L 65 34.05 L 50.35 34.05 z M 58.33 40.54 C 58.33 40.9 58.04 41.199999999999996 57.67 41.199999999999996 C 57.31 41.199999999999996 57.010000000000005 40.91 57.010000000000005 40.54 L 57.010000000000005 39.13 C 57.010000000000005 38.77 57.300000000000004 38.470000000000006 57.67 38.470000000000006 C 58.03 38.470000000000006 58.33 38.760000000000005 58.33 39.13 L 58.33 40.54 z" stroke-linecap="round" />
</g>
<g transform="matrix(NaN NaN NaN NaN 0 0)"  >
<g style=""   >
</g>
</g>
<g transform="matrix(NaN NaN NaN NaN 0 0)"  >
<g style=""   >
</g>
</g>
</svg>