<?xml version="1.0" encoding="UTF-8" standalone="no" ?>
<!DOCTYPE svg PUBLIC "-//W3C//DTD SVG 1.1//EN" "http://www.w3.org/Graphics/SVG/1.1/DTD/svg11.dtd">
<svg xmlns="http://www.w3.org/2000/svg" xmlns:xlink="http://www.w3.org/1999/xlink" version="1.1" width="1080" height="1080" viewBox="0 0 1080 1080" xml:space="preserve">
<desc>Created with Fabric.js 5.2.4</desc>
<defs>
</defs>
<g transform="matrix(1 0 0 1 540 540)" id="d9a961e1-72ef-4504-9215-0abce7bf4acf"  >
<rect style="stroke: none; stroke-width: 1; stroke-dasharray: none; stroke-linecap: butt; stroke-dashoffset: 0; stroke-linejoin: miter; stroke-miterlimit: 4; fill: rgb(255,255,255); fill-rule: nonzero; opacity: 1; visibility: hidden;" vector-effect="non-scaling-stroke"  x="-540" y="-540" rx="0" ry="0" width="1080" height="1080" />
</g>
<g transform="matrix(1 0 0 1 540 540)" id="dcc77ed6-465e-4fa1-81e3-770aed167676"  >
</g>
<g transform="matrix(1 0 0 1 540 529.37)"  >
<path style="stroke: none; stroke-width: 1; stroke-dasharray: none; stroke-linecap: butt; stroke-dashoffset: 0; stroke-linejoin: miter; stroke-miterlimit: 4; fill: rgb(0,0,0); fill-rule: nonzero; opacity: 1;" vector-effect="non-scaling-stroke"  transform=" translate(-30, -30)" d="M 52 15 L 56 15 C 57.10456949966159 15 58 14.104569499661586 58 13 L 58 9.816 C 59.37754668531294 9.328963698707085 60.203872085740194 7.920333770236305 59.95679567896047 6.480266939076523 C 59.70971927218074 5.04020010791674 58.46110890387875 3.987572875253811 57 3.987572875253811 C 55.53889109612125 3.987572875253811 54.29028072781926 5.040200107916739 54.04320432103953 6.480266939076522 C 53.796127914259806 7.920333770236305 54.62245331468706 9.328963698707083 56 9.816 L 56 13 L 52 13 L 52 8.535 C 51.99540148051426 6.962688332086742 50.78103375723972 5.658996825794163 49.213 5.543000000000001 C 46.1 5.323 38.14 4.386 31.582 0.442 C 30.60929256522002 -0.14601248250863524 29.39070743477998 -0.14601248250863502 28.418 0.44200000000000045 C 21.859 4.386 13.9 5.323 10.787 5.543 C 9.218741331522654 5.658527962768682 8.004114898349144 6.962497208572463 8 8.535 L 8 13 L 4 13 L 4 9.816 C 5.377546685312943 9.328963698707085 6.203872085740192 7.920333770236305 5.956795678960466 6.480266939076523 C 5.70971927218074 5.04020010791674 4.461108903878749 3.987572875253811 3 3.987572875253811 C 1.538891096121251 3.987572875253811 0.2902807278192605 5.040200107916739 0.043204321039533866 6.480266939076522 C -0.20387208574019322 7.920333770236305 0.6224533146870574 9.328963698707083 2 9.816 L 2 13 C 2 14.104569499661586 2.895430500338413 15 4 15 L 8 15 L 8 21 L 5.816 21 C 5.328963698707083 19.622453314687057 3.9203337702363052 18.796127914259806 2.480266939076522 19.043204321039532 C 1.0402001079167391 19.29028072781926 -0.012427124746189122 20.53889109612125 -0.01242712474619001 22 C -0.012427124746190898 23.46110890387875 1.0402001079167373 24.709719272180738 2.4802669390765204 24.956795678960468 C 3.9203337702363035 25.203872085740194 5.328963698707082 24.377546685312943 5.815999999999999 23 L 8 23 L 8 29 L 4 29 C 2.895430500338413 29 2 29.895430500338414 2 31 L 2 34.184 C 0.6224533146870574 34.671036301292915 -0.20387208574019278 36.079666229763696 0.043204321039533866 37.51973306092348 C 0.29028072781926073 38.95979989208326 1.538891096121251 40.01242712474619 3 40.01242712474619 C 4.461108903878749 40.01242712474619 5.70971927218074 38.95979989208326 5.956795678960466 37.51973306092348 C 6.203872085740192 36.079666229763696 5.377546685312942 34.671036301292915 4 34.184 L 4 31 L 8 31 L 8 32.894 C 7.995290831499167 38.7335170207294 10.54511371892465 44.28291662484255 14.97900000000001 48.083000000000006 L 18 50.67 L 18 56 L 14.816 56 C 14.328963698707085 54.62245331468706 12.920333770236306 53.796127914259806 11.480266939076524 54.04320432103953 C 10.04020010791674 54.29028072781926 8.98757287525381 55.53889109612125 8.98757287525381 57 C 8.98757287525381 58.461108903878745 10.04020010791674 59.70971927218074 11.480266939076522 59.95679567896047 C 12.920333770236304 60.203872085740194 14.328963698707083 59.37754668531294 14.816 58 L 18 58 C 19.104569499661586 58 20 57.10456949966159 20 56 L 20 52.384 L 28.048000000000002 59.278 C 29.16799435978418 60.24548608730166 30.82800564021582 60.24548608730166 31.948 59.278 L 40 52.384 L 40 56 C 40 57.10456949966159 40.89543050033841 58 42 58 L 45.184 58 C 45.671036301292915 59.37754668531294 47.079666229763696 60.203872085740194 48.51973306092348 59.95679567896047 C 49.95979989208326 59.70971927218074 51.01242712474619 58.46110890387875 51.01242712474619 57 C 51.01242712474619 55.53889109612125 49.95979989208326 54.29028072781926 48.51973306092348 54.04320432103953 C 47.079666229763696 53.796127914259806 45.671036301292915 54.62245331468706 45.184 56 L 42 56 L 42 50.67 L 45.021 48.082 C 49.45495060888949 44.28239276489549 52.00482063244712 38.73325593758596 52 32.894000000000005 L 52 31 L 56 31 L 56 34.184 C 54.62245331468706 34.671036301292915 53.796127914259806 36.079666229763696 54.04320432103953 37.51973306092348 C 54.29028072781926 38.95979989208326 55.53889109612125 40.01242712474619 57 40.01242712474619 C 58.46110890387875 40.01242712474619 59.70971927218074 38.95979989208326 59.95679567896047 37.51973306092348 C 60.203872085740194 36.079666229763696 59.37754668531294 34.671036301292915 58 34.184 L 58 31 C 58 29.895430500338414 57.10456949966159 29 56 29 L 52 29 L 52 23 L 54.184 23 C 54.671036301292915 24.377546685312943 56.079666229763696 25.203872085740194 57.51973306092348 24.956795678960468 C 58.95979989208326 24.709719272180738 60.01242712474619 23.46110890387875 60.01242712474619 22 C 60.01242712474619 20.53889109612125 58.95979989208326 19.290280727819262 57.51973306092348 19.043204321039532 C 56.079666229763696 18.796127914259806 54.671036301292915 19.622453314687057 54.184 21 L 52 21 Z M 57 6 C 57.5522847498308 6 58 6.447715250169207 58 7 C 58 7.552284749830793 57.5522847498308 8 57 8 C 56.44771525016921 8 56 7.552284749830794 56 7 C 56 6.447715250169207 56.4477152501692 6 57 6 Z M 3 6 C 3.5522847498307932 6 4 6.447715250169207 4 7 C 4 7.552284749830793 3.5522847498307937 8 3.0000000000000004 8 C 2.4477152501692068 8 2 7.552284749830794 2 7 C 2 6.447715250169207 2.4477152501692068 6 3 6 Z M 3 23 C 2.4477152501692068 23 2 22.552284749830793 2 22 C 2 21.447715250169207 2.4477152501692068 21 3 21 C 3.5522847498307932 21 4 21.447715250169207 4 22 C 4 22.552284749830793 3.5522847498307932 23 3 23 Z M 3 38 C 2.4477152501692068 38 2 37.5522847498308 2 37 C 2 36.4477152501692 2.4477152501692068 36 3 36 C 3.5522847498307932 36 4 36.4477152501692 4 37 C 4 37.5522847498308 3.5522847498307932 38 3 38 Z M 12 58 C 11.447715250169207 58 11 57.5522847498308 11 57 C 11 56.4477152501692 11.447715250169207 56 12 56 C 12.552284749830793 56 13 56.4477152501692 13 57 C 13 57.5522847498308 12.552284749830793 58 12 58 Z M 48 56 C 48.5522847498308 56 49 56.4477152501692 49 57 C 49 57.55228474983079 48.5522847498308 58 48 58 C 47.44771525016921 58 47 57.5522847498308 47 57 C 47 56.4477152501692 47.4477152501692 56 48 56 Z M 57 38 C 56.4477152501692 38 56 37.5522847498308 56 37 C 56 36.4477152501692 56.4477152501692 36 57 36 C 57.5522847498308 36 58 36.4477152501692 58 37 C 58 37.5522847498308 57.5522847498308 38 57 38 Z M 57 21 C 57.5522847498308 21 58 21.447715250169207 58 22 C 58 22.552284749830793 57.5522847498308 23 57 23 C 56.44771525016921 23 56 22.552284749830793 56 22 C 56 21.447715250169207 56.4477152501692 21 57 21 Z M 50 32.894 C 50.00468986469247 38.149113008660585 47.710202984459265 43.14327561469685 43.720000000000006 46.562999999999995 L 30.65 57.76 C 30.27577598424916 58.08008772309529 29.724224015750835 58.08008772309529 29.349999999999998 57.76 L 16.281 46.564 C 12.290269201859612 43.1441530022378 9.995402540042289 38.14959365387882 9.999999999999996 32.894 L 10 8.535 C 9.993640777721266 8.007713447769348 10.401707810329373 7.567986041941646 10.928 7.535 C 14.977 7.2490000000000006 22.768 6.171 29.45 2.152 C 29.787654929671124 1.9457221592282317 30.212345070328876 1.9457221592282317 30.55 2.152 C 37.230000000000004 6.171 45.021 7.252 49.071 7.535 C 49.59752605978922 7.567492373736317 50.00586895860973 8.007517049189458 49.998999999999995 8.535 Z" stroke-linecap="round" />
</g>
<g transform="matrix(1 0 0 1 540 528.87)"  >
<path style="stroke: none; stroke-width: 1; stroke-dasharray: none; stroke-linecap: butt; stroke-dashoffset: 0; stroke-linejoin: miter; stroke-miterlimit: 4; fill: rgb(246,121,246); fill-rule: nonzero; opacity: 1;" vector-effect="non-scaling-stroke"  transform=" translate(-30, -29.5)" d="M 46.255 8.874 C 40.912206073499924 8.262682209098953 35.723662878966934 6.69182331689149 30.939000000000004 4.237 C 30.3530011982087 3.9205146127945505 29.646998801791298 3.920514612794551 29.061 4.237000000000001 C 24.27662584327387 6.692537774434822 19.087949976681166 8.26343683381001 13.745000000000001 8.874 C 12.744452826004652 9.002612613119638 11.996307294233176 9.856227371719642 12 10.864999999999998 L 12 32.675 C 11.991738894600356 37.371847409581086 14.027861673753433 41.8397826582067 17.577999999999996 44.915 L 17.578 44.915 L 28.695 54.515 C 29.446037568681074 55.156368697098216 30.551962431318927 55.156368697098216 31.303 54.515 L 42.419 44.915 C 45.97069029166686 41.84066744877345 48.00804054323865 37.37244184776312 48 32.675 L 48 10.865 C 48.003692705766824 9.856227371719644 47.255547173995346 9.00261261311964 46.255 8.874 Z M 46 32.675 C 46.00769189556497 36.79047005252585 44.22375472067172 40.70549485316633 41.113 43.39999999999999 L 30 53 L 18.886 43.4 C 15.775617095574477 40.70530883151303 13.992056944689782 36.790310342311564 14 32.675 L 13.992 10.857999999999997 C 19.574690166208573 10.220036275152273 24.99521914171538 8.574022413231281 29.990000000000006 6 C 34.991518059866436 8.56918452334356 40.41464860107101 10.217125190611515 46 10.864999999999988 Z" stroke-linecap="round" />
</g>
<g transform="matrix(1 0 0 1 540 527.37)"  >
<path style="stroke: none; stroke-width: 1; stroke-dasharray: none; stroke-linecap: butt; stroke-dashoffset: 0; stroke-linejoin: miter; stroke-miterlimit: 4; fill: rgb(21,178,21); fill-rule: nonzero; opacity: 1;" vector-effect="non-scaling-stroke"  transform=" translate(-30, -28)" d="M 18 28 C 18 34.62741699796952 23.372583002030478 40 30 40 C 36.62741699796952 40 42 34.62741699796952 42 28 C 42 21.372583002030478 36.62741699796952 16 30 16 C 23.375553048810705 16.007164847613815 18.00716484761381 21.3755530488107 18 28 Z M 30 18 C 35.52284749830793 18 40 22.477152501692064 40 28 C 40 33.52284749830793 35.52284749830794 38 30.000000000000004 38 C 24.477152501692068 38 20 33.52284749830794 20 28.000000000000004 C 20.006062370454778 22.4796655677282 24.479665567728205 18.006062370454778 30 18 Z" stroke-linecap="round" />
</g>
<g transform="matrix(1 0 0 1 540 527.37)"  >
<path style="stroke: none; stroke-width: 1; stroke-dasharray: none; stroke-linecap: butt; stroke-dashoffset: 0; stroke-linejoin: miter; stroke-miterlimit: 4; fill: rgb(0,0,0); fill-rule: nonzero; opacity: 1;" vector-effect="non-scaling-stroke"  transform=" translate(-30, -28)" d="M 27.293 32.707 C 27.480492731357458 32.89454937481095 27.734805186521186 32.99994336259451 28 33 L 28.033 33 C 28.30952015057658 32.99069303447558 28.569826614574453 32.86723753486046 28.752000000000002 32.659 L 35.752 24.659 C 36.115955650138496 24.24312958337741 36.07387041662259 23.610955650138493 35.658 23.247 C 35.24212958337741 22.883044349861503 34.609955650138495 22.92512958337741 34.246 23.340999999999998 L 27.946 30.540999999999997 L 25.702 28.296999999999997 C 25.309621113035696 27.91802779049186 24.685915222978863 27.923447626102845 24.300181424540856 28.309181424540853 C 23.91444762610285 28.694915222978857 23.909027790491862 29.318621113035693 24.288 29.711 Z" stroke-linecap="round" />
</g>
<g transform="matrix(NaN NaN NaN NaN 0 0)"  >
<g style=""   >
</g>
</g>
<g transform="matrix(NaN NaN NaN NaN 0 0)"  >
<g style=""   >
</g>
</g>
</svg>