<?xml version="1.0" encoding="UTF-8" standalone="no" ?>
<!DOCTYPE svg PUBLIC "-//W3C//DTD SVG 1.1//EN" "http://www.w3.org/Graphics/SVG/1.1/DTD/svg11.dtd">
<svg xmlns="http://www.w3.org/2000/svg" xmlns:xlink="http://www.w3.org/1999/xlink" version="1.1" width="1080" height="1080" viewBox="0 0 1080 1080" xml:space="preserve">
<desc>Created with Fabric.js 5.2.4</desc>
<defs>
</defs>
<g transform="matrix(1 0 0 1 540 540)" id="31c19fd9-250b-45e5-a75a-6513ffe5e071"  >
<rect style="stroke: none; stroke-width: 1; stroke-dasharray: none; stroke-linecap: butt; stroke-dashoffset: 0; stroke-linejoin: miter; stroke-miterlimit: 4; fill: rgb(255,255,255); fill-rule: nonzero; opacity: 1; visibility: hidden;" vector-effect="non-scaling-stroke"  x="-540" y="-540" rx="0" ry="0" width="1080" height="1080" />
</g>
<g transform="matrix(1 0 0 1 540 540)" id="e5e82985-bf62-4736-8bfb-9252b4080f6c"  >
</g>
<g transform="matrix(1 0 0 1 542 529.37)"  >
<path style="stroke: none; stroke-width: 1; stroke-dasharray: none; stroke-linecap: butt; stroke-dashoffset: 0; stroke-linejoin: miter; stroke-miterlimit: 4; fill: rgb(0,0,0); fill-rule: nonzero; opacity: 1;" vector-effect="non-scaling-stroke"  transform=" translate(-30, -30)" d="M 6.09 43.3 C 6.408671857362802 45.480995777060215 7.534206477130078 47.46299301174235 9.244 48.854 C 10.944202221535424 50.2444149058579 13.073654496367988 51.002762828491605 15.270000000000001 51 C 16.22499572697752 51.00110213119511 16.99889786880489 51.775004273022475 17 52.73 L 17 55.709999999999994 C 17.004486912307602 56.97753155200139 17.79950555402671 58.10756809447506 18.991 58.53999999999999 C 20.839 59.206 24.249 60 30 60 C 35.751000000000005 60 39.161 59.206 41.010999999999996 58.54 C 42.20151989076664 58.10666043764668 42.99552778784876 56.97692572234131 43 55.71 L 43 52.73 C 43.00055167441627 51.77477598713689 43.774775987136884 51.00055167441627 44.73 51 C 49.275005725047365 51.06195854375467 53.18010172734826 47.786442289101416 53.91 43.3 C 54.171546811717754 41.49232096787364 53.87646003073277 39.64785418554672 53.064 38.012 C 58.75669555320241 27.072610490208227 55.981557490719936 13.639077815662564 46.420075241945725 5.850940508528822 C 36.858592993171506 -1.9371967986049228 23.14140700682851 -1.9371967986049157 13.57992475805429 5.850940508528822 C 4.018442509280071 13.63907781566256 1.2433044467975876 27.07261049020822 6.936 38.01199999999999 C 6.1236009881678095 39.647873717908176 5.828517255352185 41.49232144737509 6.089999999999998 43.3 Z M 31 7 C 31 7.552284749830793 30.552284749830793 8 30 8 C 29.447715250169207 8 29 7.552284749830793 29 7 C 29 6.447715250169207 29.447715250169207 6 30 6 C 30.552284749830793 6 31 6.447715250169207 31 7 Z M 6 26 C 5.997385968198208 22.498365504339397 6.765918183263987 19.039116991213454 8.250999999999994 15.86800000000001 C 8.448362230285849 16.421584565161304 8.762852219051215 16.92606470982939 9.173000000000002 17.347 L 11.413 19.587000000000003 C 11.7891554700932 19.960950063599654 12.000460154929321 20.469593197625954 12 21 L 12 23.184 C 10.622453314687057 23.67103630129292 9.796127914259808 25.079666229763696 10.043204321039534 26.51973306092348 C 10.29028072781926 27.95979989208326 11.538891096121251 29.01242712474619 13 29.01242712474619 C 14.461108903878749 29.01242712474619 15.70971927218074 27.95979989208326 15.956795678960466 26.51973306092348 C 16.203872085740194 25.079666229763696 15.377546685312943 23.67103630129292 14 23.184 L 14 21 C 14.002342273918991 19.938807542078155 13.579944328843878 18.920803287408635 12.827 18.173000000000002 L 10.594 15.94 C 10.215298996798607 15.560230406256292 10.001827324757437 15.046317121712734 10 14.51 L 10 12.754 C 14.247504969961312 6.338950951695369 21.313057640845436 2.3491449198050667 29 2.0250000000000004 L 29 4.184 C 27.622453314687057 4.671036301292917 26.796127914259806 6.079666229763696 27.043204321039532 7.519733060923478 C 27.290280727819262 8.95979989208326 28.53889109612125 10.01242712474619 30 10.01242712474619 C 31.46110890387875 10.01242712474619 32.70971927218074 8.95979989208326 32.95679567896047 7.519733060923478 C 33.203872085740194 6.079666229763696 32.37754668531294 4.671036301292917 31 4.184000000000001 L 31 2.025 C 38.68694235915457 2.349144919805063 45.75249503003867 6.338950951695356 49.99999999999999 12.753999999999985 L 50 14.51 C 49.99884226232717 15.043023171637907 49.78798413609495 15.554183501498978 49.413 15.933 L 47.172999999999995 18.173000000000002 C 46.42005567115612 18.920803287408635 45.99765772608101 19.93880754207816 46 21 L 46 23.184 C 44.62245331468706 23.67103630129292 43.796127914259806 25.079666229763696 44.04320432103953 26.51973306092348 C 44.29028072781926 27.95979989208326 45.53889109612125 29.01242712474619 47 29.01242712474619 C 48.46110890387875 29.01242712474619 49.70971927218074 27.95979989208326 49.95679567896047 26.51973306092348 C 50.203872085740194 25.079666229763696 49.37754668531294 23.67103630129292 48 23.184 L 48 21 C 47.99953984507068 20.469593197625954 48.2108445299068 19.96095006359965 48.587 19.587 L 50.834 17.34 C 51.24152260402719 16.92101165680989 51.55365148624254 16.418876449573812 51.749 15.868000000000002 C 54.97781238654709 22.787599972767225 54.71785848393495 30.83131644502304 51.04900000000001 37.52799999999999 C 50.87979110709936 37.83566958088832 50.88434592209134 38.20954397814692 51.061 38.513 C 51.848644555888775 39.875424728158166 52.15342427781813 41.46380274718423 51.926 43.021 C 51.893472325693814 43.246441274347035 51.84941456542568 43.4700677847989 51.794000000000004 43.691 L 45.78 45.023 C 45.279655224482475 45.13214688003382 44.9426278644477 45.60165102359208 44.99926585950892 46.11062064284676 C 45.05590385457014 46.61959026210143 45.48790082764247 47.00351759570342 46 47 C 46.07292661144275 46.9997206243806 46.14563514309279 46.992014190150414 46.217 46.977 L 50.735 45.977 C 49.3342638906489 47.88720370892785 47.103719429734106 49.0113981172289 44.735 49.001 C 43.745211962138676 49.00020403065684 42.795646902954125 49.39263259431745 42.09519846007217 50.09195581881726 C 41.39475001719022 50.791279043317076 41.000795329753494 51.74021196162453 41 52.73 L 41 55.709999999999994 C 41.00228872684157 56.13666086078034 40.73361825560613 56.51777936183031 40.331 56.65899999999999 C 39.246961158130475 57.03075672251305 38.13233639732842 57.30648497315877 37 57.483000000000004 L 37 55 C 37 54.4477152501692 36.5522847498308 54 36 54 C 35.4477152501692 54 35 54.4477152501692 35 55 L 35 57.754 C 33.851 57.876 32.527 57.964 31 57.991 L 31 55 C 31 54.4477152501692 30.552284749830793 54 30 54 C 29.447715250169207 54 29 54.4477152501692 29 55 L 29 57.991 C 27.473 57.964 26.149 57.876 25 57.754 L 25 55 C 25 54.4477152501692 24.552284749830793 54 24 54 C 23.447715250169207 54 23 54.4477152501692 23 55 L 23 57.483 C 21.868276889437702 57.30668512180142 20.75429883719158 57.03095129330914 19.671 56.65899999999999 C 19.267592180682055 56.51845987250061 18.998006619715582 56.137183125321506 19 55.71 L 19 52.73 C 18.9972456415955 50.67111985498022 17.328880145019777 49.002754358404495 15.27 49 C 13.537592770317806 49.0023084090041 11.857806799537556 48.404807761846044 10.515999999999998 47.309 C 10.042635746720432 46.919828631360474 9.621191096211515 46.471497559766455 9.262 45.974999999999994 L 13.784 46.974999999999994 C 13.854968838458559 46.99061919980129 13.92733965100273 46.99899545125316 14 47 C 14.511115356398356 47.00090358057376 14.940648044283837 46.61623505658753 14.99590644749445 46.10811476287876 C 15.051164850705065 45.59999446916999 14.71436128223408 45.13198639277271 14.215 45.023 L 8.2 43.691 C 8.14510767493891 43.47101930261972 8.101385071694109 43.24840116243437 8.068999999999997 43.024 C 7.84127876508973 41.46583217121382 8.146055927634217 39.876410459955814 8.933999999999997 38.513 C 9.110654077908658 38.20954397814692 9.115208892900641 37.83566958088832 8.946 37.528 C 7.012209894884043 33.9934205070811 5.999094052291026 30.028994358604404 6.000000000000005 26.00000000000002 Z M 14 26 C 14 26.552284749830793 13.552284749830793 27 13 27 C 12.447715250169207 27 12 26.552284749830793 12 26 C 12 25.447715250169207 12.447715250169207 25 13 25 C 13.552284749830793 25 14 25.447715250169207 14 26 Z M 48 26 C 48 26.552284749830793 47.5522847498308 27 47 27 C 46.4477152501692 27 46 26.552284749830793 46 26 C 46 25.447715250169207 46.4477152501692 25 47 25 C 47.5522847498308 25 48 25.447715250169207 48 26 Z" stroke-linecap="round" />
</g>
<g transform="matrix(1 0 0 1 531.99 525.85)"  >
<path style="stroke: none; stroke-width: 1; stroke-dasharray: none; stroke-linecap: butt; stroke-dashoffset: 0; stroke-linejoin: miter; stroke-miterlimit: 4; fill: rgb(21,178,21); fill-rule: nonzero; opacity: 1;" vector-effect="non-scaling-stroke"  transform=" translate(-19.99, -26.49)" d="M 16.3 43.273 C 17.386459316833196 43.74734525535572 18.559507422195935 43.9911485771089 19.745000000000005 43.989000000000004 C 22.988277145971843 43.95929635006381 25.988997189273185 42.265962764088066 27.691000000000003 39.505 C 28.01134075704287 38.989193334326494 28.09128552516037 38.359491393674965 27.910000000000004 37.78 C 27.75566017747302 37.2956428036296 27.43279760119526 36.88266254122596 27 36.616 L 27 17.816 C 28.377546685312943 17.32896369870708 29.203872085740194 15.920333770236304 28.956795678960468 14.480266939076522 C 28.709719272180738 13.04020010791674 27.46110890387875 11.987572875253809 26 11.987572875253809 C 24.53889109612125 11.987572875253809 23.290280727819262 13.040200107916737 23.043204321039532 14.48026693907652 C 22.796127914259806 15.920333770236303 23.622453314687057 17.32896369870708 25 17.816 L 25 35.7 L 22 34.386 L 22 24.33 C 22 23.248148932210803 21.649110640673516 22.195480854231356 21 21.33 L 19.6 19.474999999999998 C 19.21053361559589 18.955711487461183 19 18.324110640673517 19 17.674999999999997 L 19 14.816 C 20.377546685312943 14.328963698707085 21.203872085740194 12.920333770236306 20.956795678960468 11.480266939076522 C 20.709719272180738 10.04020010791674 19.46110890387875 8.98757287525381 18 8.98757287525381 C 16.53889109612125 8.98757287525381 15.29028072781926 10.04020010791674 15.043204321039534 11.480266939076522 C 14.796127914259806 12.920333770236304 15.622453314687057 14.328963698707083 17 14.816 L 17 17.67 C 17 18.751851067789197 17.350889359326484 19.804519145768644 18 20.67 L 19.4 22.525000000000002 C 19.78946638440411 23.044288512538817 20 23.675889359326487 20 24.325000000000003 L 20 33.507000000000005 L 14.253 31 C 13.68607865796998 30.753036684169437 13.040133939270877 30.76287895697129 12.481 31.027 C 11.931738459532793 31.286566060351745 11.521797425163424 31.771273920384566 11.357 32.356 C 10.083652011873824 36.716277456107015 12.183193090138257 41.353277243971235 16.299999999999997 43.273 Z M 18 11 C 18.552284749830793 11 19 11.447715250169207 19 12 C 19 12.552284749830793 18.552284749830793 13 18 13 C 17.447715250169207 13 17 12.552284749830793 17 12 C 17 11.447715250169207 17.447715250169207 11 18 11 Z M 26 14 C 26.552284749830793 14 27 14.447715250169207 27 15 C 27 15.552284749830793 26.552284749830793 16 26 16 C 25.447715250169207 16 25 15.552284749830793 25 15 C 25 14.447715250169207 25.447715250169207 14 26 14 Z M 13.338 32.83 C 13.356745152186493 32.82102907840124 13.377220324992429 32.816251538079854 13.398 32.815999999999995 C 13.415912061592369 32.81598788911353 13.433627256552574 32.81973533420127 13.45 32.827 L 25.921 38.289 C 25.968999999999998 38.31 25.987 38.351 25.987 38.448 C 24.16612510785559 41.498272904621615 20.395430796373713 42.768606962073704 17.1 41.442 C 13.869254894637997 39.91560710201563 12.262532579459677 36.23748573616883 13.337999999999997 32.83 Z" stroke-linecap="round" />
</g>
<g transform="matrix(1 0 0 1 542 545.37)"  >
<path style="stroke: none; stroke-width: 1; stroke-dasharray: none; stroke-linecap: butt; stroke-dashoffset: 0; stroke-linejoin: miter; stroke-miterlimit: 4; fill: rgb(246,121,246); fill-rule: nonzero; opacity: 1;" vector-effect="non-scaling-stroke"  transform=" translate(-30, -46)" d="M 27.58 42.426 L 25.345 46.635000000000005 C 24.86102585031402 47.535682996905614 24.88993900203466 48.62525229332536 25.421 49.499 C 25.99451670050754 50.44321816331117 27.024340581782067 51.01403265584923 28.129 51 L 31.871000000000002 51 C 32.97545756876421 51.01424345210931 34.005235613055156 50.443834638801924 34.579 49.5 C 35.11006099796534 48.62625229332536 35.13897414968598 47.53668299690561 34.655 46.636 L 32.42 42.426 C 31.932780499917484 41.545791167509385 31.00605687217729 40.9995357404713 30 40.9995357404713 C 28.993943127822714 40.9995357404713 28.06721950008252 41.54579116750939 27.580000000000002 42.426 Z M 30 43 C 30.26776683656419 42.99316546807675 30.518161275306085 43.13214586756193 30.654 43.363 L 32.89 47.572 C 33.0467268439867 47.854035424444 33.03714172206842 48.19909981350198 32.865 48.472 C 32.65096219128669 48.81253070581865 32.2730659501217 49.01478503207596 31.871000000000002 49.004000000000005 L 28.129 49.004000000000005 C 27.726934049878306 49.01478503207597 27.34903780871332 48.81253070581865 27.135 48.47200000000001 C 26.962858277931584 48.19909981350199 26.953273156013307 47.85403542444401 27.110000000000003 47.57200000000001 L 29.346000000000004 43.363000000000014 C 29.481838724693915 43.13214586756194 29.73223316343581 42.993165468076754 30 43 Z" stroke-linecap="round" />
</g>
<g transform="matrix(1 0 0 1 552.01 525.85)"  >
<path style="stroke: none; stroke-width: 1; stroke-dasharray: none; stroke-linecap: butt; stroke-dashoffset: 0; stroke-linejoin: miter; stroke-miterlimit: 4; fill: rgb(0,0,0); fill-rule: nonzero; opacity: 1;" vector-effect="non-scaling-stroke"  transform=" translate(-40.01, -26.49)" d="M 33 17.816 L 33 36.616 C 32.570959693509415 36.884445818111836 32.251815759862104 37.29720530562903 32.1 37.78 C 31.91895926072502 38.359396054414795 31.998508852776634 38.988859569502104 32.318000000000005 39.505 C 34.02032748597595 42.26612059937424 37.02141670425989 43.95944940959007 40.26500000000001 43.989000000000004 C 41.45126647709173 43.99140087975572 42.625085795548316 43.747238288710356 43.71200000000001 43.272000000000006 C 47.826494017190186 41.34778220896347 49.92089965201861 36.7087438103433 48.643 32.35 C 48.47794836877699 31.7656498307249 48.06804132376827 31.281346845162997 47.519 31.022000000000002 C 46.95923252081929 30.75908632040077 46.31312226415261 30.751064635498583 45.747 31 L 40 33.512 L 40 24.33 C 40 23.680889359326482 40.21053361559589 23.049288512538812 40.6 22.529999999999998 L 42 20.666 C 42.64911064067352 19.800519145768643 43 18.747851067789195 43 17.666 L 43 14.816 C 44.37754668531294 14.328963698707085 45.203872085740194 12.920333770236306 44.95679567896047 11.480266939076522 C 44.70971927218074 10.04020010791674 43.46110890387875 8.98757287525381 42 8.98757287525381 C 40.53889109612125 8.98757287525381 39.29028072781926 10.04020010791674 39.04320432103953 11.480266939076522 C 38.796127914259806 12.920333770236304 39.62245331468706 14.328963698707083 41 14.816 L 41 17.67 C 41 18.319110640673518 40.78946638440411 18.950711487461188 40.4 19.470000000000002 L 39 21.334 C 38.35088935932648 22.199480854231357 38 23.252148932210805 38 24.334 L 38 34.388 L 35 35.7 L 35 17.816 C 36.37754668531294 17.32896369870708 37.203872085740194 15.920333770236304 36.95679567896047 14.480266939076522 C 36.70971927218074 13.04020010791674 35.46110890387875 11.987572875253809 34 11.987572875253809 C 32.53889109612125 11.987572875253809 31.290280727819262 13.040200107916737 31.043204321039532 14.48026693907652 C 30.796127914259806 15.920333770236303 31.622453314687057 17.32896369870708 33 17.816 Z M 42 11 C 42.5522847498308 11 43 11.447715250169207 43 12 C 43 12.552284749830793 42.5522847498308 13 42 13 C 41.44771525016921 13 41 12.552284749830793 41 12 C 41 11.447715250169207 41.4477152501692 11 42 11 Z M 46.55 32.827 C 46.56249778540961 32.82106169060862 46.57616316549732 32.81798698008889 46.589999999999996 32.818 C 46.6393598083844 32.82534303330313 46.68443447522573 32.85018733786134 46.717 32.888 C 47.85189654969333 36.30813055609013 46.18367199699499 40.02829914473931 42.87496682123206 41.4557980971336 C 39.566261645469126 42.8832970495279 35.71532451925959 41.544300882177666 34.006 38.372 C 34.01725733932514 38.335118452420325 34.04385765720877 38.30487425537456 34.079 38.289 Z M 34 14 C 34.5522847498308 14 35 14.447715250169207 35 15 C 35 15.552284749830793 34.5522847498308 16 34 16 C 33.44771525016921 16 33 15.552284749830793 33 15 C 33 14.447715250169207 33.4477152501692 14 34 14 Z" stroke-linecap="round" />
</g>
<g transform="matrix(NaN NaN NaN NaN 0 0)"  >
<g style=""   >
</g>
</g>
<g transform="matrix(NaN NaN NaN NaN 0 0)"  >
<g style=""   >
</g>
</g>
</svg>