<?xml version="1.0" encoding="UTF-8" standalone="no" ?>
<!DOCTYPE svg PUBLIC "-//W3C//DTD SVG 1.1//EN" "http://www.w3.org/Graphics/SVG/1.1/DTD/svg11.dtd">
<svg xmlns="http://www.w3.org/2000/svg" xmlns:xlink="http://www.w3.org/1999/xlink" version="1.1" width="1080" height="1080" viewBox="0 0 1080 1080" xml:space="preserve">
<desc>Created with Fabric.js 5.2.4</desc>
<defs>
</defs>
<g transform="matrix(1 0 0 1 540 540)" id="0fd32120-db30-4c34-a23b-7811fe7a3ffd"  >
</g>
<g transform="matrix(1 0 0 1 540 540)" id="f003e0c7-e030-4248-912e-c7633d98db0b"  >
<rect style="stroke: none; stroke-width: 1; stroke-dasharray: none; stroke-linecap: butt; stroke-dashoffset: 0; stroke-linejoin: miter; stroke-miterlimit: 4; fill: rgb(255,255,255); fill-rule: nonzero; opacity: 1; visibility: hidden;" vector-effect="non-scaling-stroke"  x="-540" y="-540" rx="0" ry="0" width="1080" height="1080" />
</g>
<g transform="matrix(1 0 0 1 573.15 530.41)"  >
<path style="stroke: none; stroke-width: 1; stroke-dasharray: none; stroke-linecap: butt; stroke-dashoffset: 0; stroke-linejoin: miter; stroke-miterlimit: 4; fill: rgb(0,0,0); fill-rule: nonzero; opacity: 1;" vector-effect="non-scaling-stroke"  transform=" translate(-78.15, -63.97)" d="M 87.97 53.81 L 68.33 53.81 C 67.21 53.81 66.3 54.72 66.3 55.84 L 66.3 72.1 C 66.3 73.22 67.21 74.13 68.33 74.13 L 87.97 74.13 C 89.09 74.13 90 73.22 90 72.1 L 90 55.84 C 90 54.72 89.09 53.81 87.97 53.81 z M 79.16 63.61 L 79.16 66.32 C 79.16 66.88 78.71 67.33999999999999 78.14 67.33999999999999 C 77.58 67.33999999999999 77.12 66.88999999999999 77.12 66.32 L 77.12 63.60999999999999 C 76.71000000000001 63.29999999999999 76.44 62.809999999999995 76.44 62.25999999999999 C 76.44 61.31999999999999 77.2 60.56999999999999 78.13 60.56999999999999 C 79.07 60.56999999999999 79.82 61.32999999999999 79.82 62.25999999999999 C 79.84 62.81 79.58 63.3 79.16 63.61 z" stroke-linecap="round" />
</g>
<g transform="matrix(1 0 0 1 573.15 510.82)"  >
<path style="stroke: none; stroke-width: 1; stroke-dasharray: none; stroke-linecap: butt; stroke-dashoffset: 0; stroke-linejoin: miter; stroke-miterlimit: 4; fill: rgb(0,0,0); fill-rule: nonzero; opacity: 1;" vector-effect="non-scaling-stroke"  transform=" translate(-78.15, -44.37)" d="M 87.63 52.71 L 87.63 45.51 C 87.63 40.28 83.38 36.03 78.14999999999999 36.03 C 72.91999999999999 36.03 68.66999999999999 40.28 68.66999999999999 45.510000000000005 L 68.66999999999999 52.71000000000001 L 71.21 52.71000000000001 L 71.21 45.510000000000005 C 71.21 41.68000000000001 74.32 38.57000000000001 78.16 38.57000000000001 C 81.99 38.57000000000001 85.1 41.68000000000001 85.1 45.510000000000005 L 85.1 52.71000000000001 L 87.63 52.71000000000001 z" stroke-linecap="round" />
</g>
<g transform="matrix(1 0 0 1 516.86 502.48)"  >
<polygon style="stroke: none; stroke-width: 1; stroke-dasharray: none; stroke-linecap: butt; stroke-dashoffset: 0; stroke-linejoin: miter; stroke-miterlimit: 4; fill: rgb(21,178,21); fill-rule: nonzero; opacity: 1;" vector-effect="non-scaling-stroke"  points="4.86,-4.27 1.27,-2.2 1.27,-6.35 -1.27,-6.35 -1.27,-2.2 -4.86,-4.27 -6.13,-2.07 -2.54,0 -6.13,2.08 -4.86,4.28 -1.27,2.2 -1.27,6.35 1.27,6.35 1.27,2.2 4.86,4.28 6.13,2.08 2.54,0 6.13,-2.07 " />
</g>
<g transform="matrix(1 0 0 1 535.48 502.48)"  >
<polygon style="stroke: none; stroke-width: 1; stroke-dasharray: none; stroke-linecap: butt; stroke-dashoffset: 0; stroke-linejoin: miter; stroke-miterlimit: 4; fill: rgb(246,121,246); fill-rule: nonzero; opacity: 1;" vector-effect="non-scaling-stroke"  points="4.87,-4.27 1.27,-2.2 1.27,-6.35 -1.27,-6.35 -1.27,-2.2 -4.87,-4.27 -6.13,-2.07 -2.54,0 -6.13,2.08 -4.87,4.28 -1.27,2.2 -1.27,6.35 1.27,6.35 1.27,2.2 4.87,4.28 6.13,2.08 2.55,0 6.13,-2.07 " />
</g>
<g transform="matrix(1 0 0 1 554.1 502.48)"  >
<polygon style="stroke: none; stroke-width: 1; stroke-dasharray: none; stroke-linecap: butt; stroke-dashoffset: 0; stroke-linejoin: miter; stroke-miterlimit: 4; fill: rgb(0,0,0); fill-rule: nonzero; opacity: 1;" vector-effect="non-scaling-stroke"  points="4.87,-4.27 1.27,-2.2 1.27,-6.35 -1.27,-6.35 -1.27,-2.2 -4.87,-4.27 -6.13,-2.07 -2.55,0 -6.13,2.08 -4.87,4.28 -1.27,2.2 -1.27,6.35 1.27,6.35 1.27,2.2 4.87,4.28 6.14,2.08 2.54,0 6.14,-2.07 " />
</g>
<g transform="matrix(1 0 0 1 545 502)"  >
<path style="stroke: none; stroke-width: 1; stroke-dasharray: none; stroke-linecap: butt; stroke-dashoffset: 0; stroke-linejoin: miter; stroke-miterlimit: 4; fill: rgb(0,0,0); fill-rule: nonzero; opacity: 1;" vector-effect="non-scaling-stroke"  transform=" translate(-50, -36.02)" d="M 86.83 25.87 L 13.17 25.87 C 11.42 25.87 10 27.29 10 29.04 L 10 43.01 C 10 44.76 11.42 46.18 13.17 46.18 L 67.4 46.18 L 67.4 45.5 C 67.4 45.3 67.41000000000001 45.11 67.42 44.91 L 13.17 44.91 C 12.12 44.91 11.27 44.059999999999995 11.27 43.01 L 11.27 29.05 C 11.27 28 12.12 27.150000000000002 13.17 27.150000000000002 L 86.82000000000001 27.150000000000002 C 87.87 27.150000000000002 88.72000000000001 28.000000000000004 88.72000000000001 29.05 L 88.72000000000001 43.02 C 88.72000000000001 43.150000000000006 88.71000000000001 43.28 88.68 43.410000000000004 C 88.81 44.06 88.88000000000001 44.74 88.89 45.43000000000001 C 89.56 44.85000000000001 89.99 43.99000000000001 89.99 43.03000000000001 L 89.99 29.05 C 90 27.3 88.58 25.87 86.83 25.87 z" stroke-linecap="round" />
</g>
<g transform="matrix(1 0 0 1 573.15 512)"  >
<path style="stroke: none; stroke-width: 1; stroke-dasharray: none; stroke-linecap: butt; stroke-dashoffset: 0; stroke-linejoin: miter; stroke-miterlimit: 4; fill: rgb(0,0,0); fill-rule: nonzero; opacity: 1;" vector-effect="non-scaling-stroke"  transform=" translate(-78.15, -45.55)" d="M 72.48 45.51 L 72.48 46.19 L 83.82000000000001 46.19 L 83.82000000000001 45.51 C 83.82000000000001 45.309999999999995 83.81 45.11 83.79 44.919999999999995 L 72.51 44.919999999999995 C 72.49 45.11 72.48 45.31 72.48 45.51 z" stroke-linecap="round" />
</g>
<g transform="matrix(0 0 0 0 0 0)"  >
<g style=""   >
</g>
</g>
<g transform="matrix(NaN NaN NaN NaN 0 0)"  >
<g style=""   >
</g>
</g>
</svg>