<?xml version="1.0" encoding="UTF-8" standalone="no" ?>
<!DOCTYPE svg PUBLIC "-//W3C//DTD SVG 1.1//EN" "http://www.w3.org/Graphics/SVG/1.1/DTD/svg11.dtd">
<svg xmlns="http://www.w3.org/2000/svg" xmlns:xlink="http://www.w3.org/1999/xlink" version="1.1" width="1080" height="1080" viewBox="0 0 1080 1080" xml:space="preserve">
<desc>Created with Fabric.js 5.2.4</desc>
<defs>
</defs>
<g transform="matrix(1 0 0 1 540 540)" id="48b8b57d-efcc-4449-872c-8a45903f949e"  >
<rect style="stroke: none; stroke-width: 1; stroke-dasharray: none; stroke-linecap: butt; stroke-dashoffset: 0; stroke-linejoin: miter; stroke-miterlimit: 4; fill: rgb(255,255,255); fill-rule: nonzero; opacity: 1; visibility: hidden;" vector-effect="non-scaling-stroke"  x="-540" y="-540" rx="0" ry="0" width="1080" height="1080" />
</g>
<g transform="matrix(1 0 0 1 540 540)" id="0434044a-36f3-44e7-96b8-b02ad84e684a"  >
</g>
<g transform="matrix(1 0 0 1 541.39 528.4)"  >
<path style="stroke: none; stroke-width: 1; stroke-dasharray: none; stroke-linecap: butt; stroke-dashoffset: 0; stroke-linejoin: miter; stroke-miterlimit: 4; fill: rgb(0,0,0); fill-rule: nonzero; opacity: 1;" vector-effect="non-scaling-stroke"  transform=" translate(-50, -50.28)" d="M 68.231842 53.8867188 L 77.3008117 41.0478516 C 77.63101189999999 40.5805054 77.6733703 39.9675293 77.4100036 39.4592286 C 77.14669789999999 38.950988900000006 76.6219787 38.631775000000005 76.04934689999999 38.631775000000005 L 64.8935852 38.631775000000005 L 64.8935852 35.2071534 C 72.6712341 34.200500600000005 79.3351746 32.4049683 83.8742371 30.0028077 C 84.3690491 29.7409669 84.6817933 29.2302247 84.6897278 28.6705933 C 84.6977234 28.110962 84.3999329 27.5912476 83.9126282 27.3153687 L 77.73526 23.815918 C 75.9147034 22.7844849 73.84671019999999 22.2393189 71.7548523 22.2393189 L 66.51144409999999 22.2393189 L 64.2970886 7.1516113 C 63.954925499999995 4.8183593 61.91836549999999 3.0586548000000002 59.55966179999999 3.0586548000000002 L 56.25418079999999 3.0586548000000002 C 54.58975209999999 3.0586548000000002 53.02011099999999 3.9434815000000003 52.157745299999995 5.367981 L 51.474395699999995 6.4972535 C 51.1646423 7.0094605 50.599517799999994 7.3281861 49.9999694 7.3281861 C 49.400421 7.3281861 48.835357599999995 7.0094605 48.525115899999996 6.4967652 L 47.8422546 5.3674927 C 46.9798889 3.9434815 45.4101867 3.0586548 43.745757999999995 3.0586548 L 40.4403381 3.0586548 C 38.0815735 3.0586548 36.0450744 4.8183594 35.7029113 7.151611299999999 L 33.4884948 22.2393188 L 28.245086599999997 22.2393188 C 26.153228699999996 22.2393188 24.085296599999996 22.7844848 22.264739899999995 23.8159179 L 16.087310699999996 27.3153686 C 15.600005999999997 27.591247499999998 15.302215499999996 28.1109619 15.310211099999997 28.6705932 C 15.318206699999998 29.2302245 15.630889799999997 29.740966699999998 16.125701799999998 30.0028076 C 20.664764299999998 32.4049682 27.328704699999996 34.200500500000004 35.1063537 35.2071533 L 35.1063537 38.6317749 L 23.950592 38.6317749 C 23.3780212 38.6317749 22.853302 38.950988800000005 22.5899353 39.4592285 C 22.3265686 39.9675293 22.368988 40.5805054 22.6991272 41.0478515 L 31.768158 53.8867187 C 22.9497376 55.1331787 16.1446839 62.7305908 16.1446839 71.8875732 L 16.1446839 95.96771240000001 C 16.1446839 96.81414790000001 16.8304749 97.50000000000001 17.6769105 97.50000000000001 L 82.32302870000001 97.50000000000001 C 83.16946420000001 97.50000000000001 83.85531630000001 96.81414790000001 83.85531630000001 95.96771240000001 L 83.85531630000001 71.8875732 C 83.8553162 62.7305908 77.0502014 55.1331787 68.231842 53.8867188 z M 73.091095 41.6962891 L 64.606842 53.7074585 L 58.6244201 53.7074585 L 58.6244201 41.6962891 L 73.091095 41.6962891 z M 42.9078064 38.6317749 L 38.1708679 38.6317749 L 38.1708679 35.5568237 C 41.933563199999995 35.930786100000006 45.910797099999996 36.127380300000006 49.9999695 36.127380300000006 C 54.0892029 36.127380300000006 58.0664368 35.930786100000006 61.8290711 35.5568237 L 61.8290711 38.6317749 L 57.0921937 38.6317749 C 56.245758200000004 38.6317749 55.559906100000006 39.317565900000005 55.559906100000006 40.164001500000005 L 55.559906100000006 41.700500500000004 C 51.862457400000004 40.696716300000006 48.137542800000006 40.696716300000006 44.44003310000001 41.700500500000004 L 44.44003310000001 40.164001500000005 C 44.440033 39.3175659 43.7542419 38.6317749 42.9078064 38.6317749 z M 38.7344666 7.5965576 C 38.8576966 6.7565918 39.590911899999995 6.1231689 40.4403382 6.1231689 L 43.745758099999996 6.1231689 C 44.3448182 6.1231689 44.910430999999996 6.441894499999999 45.220672699999994 6.954101499999999 L 45.9029847 8.0823974 C 46.764373899999995 9.5073852 48.3345643 10.392700099999999 49.9999696 10.392700099999999 C 51.6654359 10.392700099999999 53.2355653 9.507385199999998 54.0964662 8.0828856 L 54.7793275 6.954650699999999 C 55.0895692 6.441894399999999 55.655182 6.123168799999999 56.254181 6.123168799999999 L 59.559662 6.123168799999999 C 60.4090883 6.123168799999999 61.142303600000005 6.7565916999999995 61.2654725 7.596557499999999 L 62.4474183 15.649413899999999 L 37.5525818 15.649413899999999 L 38.7344666 7.5965576 z M 20.1992493 28.5079956 L 23.775055000000002 26.482421900000002 C 25.136200000000002 25.711303700000002 26.6819154 25.303833 28.2450867 25.303833 L 71.75485230000001 25.303833 C 73.31802370000001 25.303833 74.86373900000001 25.711303700000002 76.22494510000001 26.482421900000002 L 79.80068970000002 28.5079956 C 72.74093630000002 31.3480225 61.70291140000002 33.0628662 49.99996950000002 33.0628662 C 38.2970886 33.0628662 27.2590027 31.3480225 20.1992493 28.5079956 z M 26.908905 41.6962891 L 41.3755188 41.6962891 L 41.3755188 53.7074585 L 35.393158 53.7074585 L 26.908905 41.6962891 z M 48.4677429 94.4354858 L 28.8017273 94.4354858 L 28.8017273 77.6699218 C 28.8017273 76.8234863 28.1159363 76.1376952 27.2695007 76.1376952 C 26.423065099999995 76.1376952 25.737213099999998 76.82348619999999 25.737213099999998 77.6699218 L 25.737213099999998 94.4354858 L 19.209198 94.4354858 L 19.209198 71.8875732 C 19.209198 63.552917400000005 25.9901428 56.771972600000005 34.3247376 56.771972600000005 L 42.0036927 56.771972600000005 L 48.467743 68.5161743 L 48.467743 94.4354858 z M 45.5014343 56.7719727 L 54.4985656 56.7719727 L 49.9999694 64.9450074 L 45.5014343 56.7719727 z M 80.790802 94.4354858 L 74.2627258 94.4354858 L 74.2627258 77.6694336 C 74.2627258 76.8229981 73.5768737 76.137146 72.7304382 76.137146 C 71.8840637 76.137146 71.1982116 76.8229981 71.1982116 77.6694336 L 71.1982116 94.43548580000001 L 51.5322571 94.43548580000001 L 51.5322571 68.5161743 L 57.996246400000004 56.771972600000005 L 65.6752015 56.771972600000005 C 74.0098573 56.771972600000005 80.79080210000001 63.552917400000005 80.79080210000001 71.8875732 L 80.79080210000001 94.4354858 z" stroke-linecap="round" />
</g>
<g transform="matrix(1 0 0 1 550.94 550.97)"  >
<path style="stroke: none; stroke-width: 1; stroke-dasharray: none; stroke-linecap: butt; stroke-dashoffset: 0; stroke-linejoin: miter; stroke-miterlimit: 4; fill: rgb(246,121,246); fill-rule: nonzero; opacity: 1;" vector-effect="non-scaling-stroke"  transform=" translate(-59.55, -72.85)" d="M 62.3652649 71.3184204 L 56.728057899999996 71.3184204 C 55.8816224 71.3184204 55.19577029999999 72.0042725 55.19577029999999 72.850708 C 55.19577029999999 73.6971435 55.88162239999999 74.3829346 56.728057899999996 74.3829346 L 62.3652649 74.3829346 C 63.2117004 74.3829346 63.8975525 73.6971436 63.8975525 72.850708 C 63.8975525 72.00427239999999 63.2117004 71.3184204 62.3652649 71.3184204 z" stroke-linecap="round" />
</g>
<g transform="matrix(1 0 0 1 558.76 550.97)"  >
<path style="stroke: none; stroke-width: 1; stroke-dasharray: none; stroke-linecap: butt; stroke-dashoffset: 0; stroke-linejoin: miter; stroke-miterlimit: 4; fill: rgb(246,121,246); fill-rule: nonzero; opacity: 1;" vector-effect="non-scaling-stroke"  transform=" translate(-67.37, -72.85)" d="M 67.9117126 71.3184204 L 66.820404 71.3184204 C 65.9739685 71.3184204 65.2881774 72.0042725 65.2881774 72.850708 C 65.2881774 73.6971435 65.97396839999999 74.3829346 66.820404 74.3829346 L 67.9117126 74.3829346 C 68.7581481 74.3829346 69.4440002 73.6971436 69.4440002 72.850708 C 69.4440002 72.00427239999999 68.7581482 71.3184204 67.9117126 71.3184204 z" stroke-linecap="round" />
</g>
<g transform="matrix(1 0 0 1 578.22 539.76)"  >
<path style="stroke: none; stroke-width: 1; stroke-dasharray: none; stroke-linecap: butt; stroke-dashoffset: 0; stroke-linejoin: miter; stroke-miterlimit: 4; fill: rgb(21,178,21); fill-rule: nonzero; opacity: 1;" vector-effect="non-scaling-stroke"  transform=" translate(-86.83, -61.64)" d="M 93.2104187 59.6525879 L 93.2104187 54.2895508 C 93.2104187 53.4431153 92.52462770000001 52.7572632 91.6781921 52.7572632 L 77.9631653 52.7572632 C 77.1167298 52.7572632 76.4309387 53.443115299999995 76.4309387 54.2895508 C 76.4309387 55.135986300000006 77.1167297 55.8217774 77.9631653 55.8217774 L 90.1459046 55.8217774 L 90.1459046 59.6500245 C 87.82809449999999 60.3150025 86.1272278 62.4536134 86.1272278 64.982422 C 86.1272278 68.0409547 88.6151428 70.529358 91.6736756 70.529358 C 94.73220839999999 70.529358 97.2206727 68.0409547 97.2206727 64.982422 C 97.2206726 62.4568481 95.5238342 60.3204956 93.2104187 59.6525879 z" stroke-linecap="round" />
</g>
<g transform="matrix(1 0 0 1 578.22 489.51)"  >
<path style="stroke: none; stroke-width: 1; stroke-dasharray: none; stroke-linecap: butt; stroke-dashoffset: 0; stroke-linejoin: miter; stroke-miterlimit: 4; fill: rgb(21,178,21); fill-rule: nonzero; opacity: 1;" vector-effect="non-scaling-stroke"  transform=" translate(-86.83, -11.39)" d="M 77.9631653 20.2720947 L 91.6781922 20.2720947 C 92.5246277 20.2720947 93.2104188 19.586303700000002 93.2104188 18.7398681 L 93.2104188 13.37677 C 95.5238343 12.7088623 97.2206727 10.572509700000001 97.2206727 8.046936 C 97.2206727 4.9884033 94.7322083 2.500000000000001 91.6736756 2.500000000000001 C 88.6151429 2.500000000000001 86.1272278 4.988403300000001 86.1272278 8.046936 C 86.1272278 10.5758056 87.8280945 12.7143554 90.1459046 13.3793945 L 90.1459046 17.2075805 L 77.9631653 17.2075805 C 77.1167298 17.2075805 76.4309387 17.893432599999997 76.4309387 18.7398681 C 76.4309387 19.5863036 77.1167297 20.2720947 77.9631653 20.2720947 z" stroke-linecap="round" />
</g>
<g transform="matrix(1 0 0 1 579.4 514.64)"  >
<path style="stroke: none; stroke-width: 1; stroke-dasharray: none; stroke-linecap: butt; stroke-dashoffset: 0; stroke-linejoin: miter; stroke-miterlimit: 4; fill: rgb(21,178,21); fill-rule: nonzero; opacity: 1;" vector-effect="non-scaling-stroke"  transform=" translate(-88.01, -36.51)" d="M 91.6736755 30.9679565 C 89.1465149 30.9679565 87.0090026 32.6669311 86.3426208 34.982666 L 80.33187860000001 34.982666 C 79.48544310000001 34.982666 78.79965200000001 35.6685181 78.79965200000001 36.5149536 C 78.79965200000001 37.3613891 79.485443 38.0471802 80.33187860000001 38.0471802 L 86.3426208 38.0471802 C 87.0090026 40.362732 89.1465148 42.0614014 91.6736755 42.0614014 C 94.7322082 42.0614014 97.2206726 39.5734864 97.2206726 36.5149536 C 97.2206726 33.4564208 94.7322083 30.9679565 91.6736755 30.9679565 z" stroke-linecap="round" />
</g>
<g transform="matrix(1 0 0 1 504.56 539.76)"  >
<path style="stroke: none; stroke-width: 1; stroke-dasharray: none; stroke-linecap: butt; stroke-dashoffset: 0; stroke-linejoin: miter; stroke-miterlimit: 4; fill: rgb(21,178,21); fill-rule: nonzero; opacity: 1;" vector-effect="non-scaling-stroke"  transform=" translate(-13.17, -61.64)" d="M 9.8540344 59.6500244 L 9.8540344 55.8217773 L 22.036773699999998 55.8217773 C 22.883209199999996 55.8217773 23.569061299999998 55.1359863 23.569061299999998 54.2895507 C 23.569061299999998 53.4431151 22.883209199999996 52.7572631 22.036773699999998 52.7572631 L 8.3217468 52.7572631 C 7.4753112999999995 52.7572631 6.7895202 53.4431152 6.7895202 54.28955070000001 L 6.7895202 59.652587800000006 C 4.4761047000000005 60.32049550000001 2.7793273000000003 62.45684810000001 2.7793273000000003 64.98242180000001 C 2.7793273000000003 68.04095450000001 5.2677306 70.52935780000001 8.3262633 70.52935780000001 C 11.384796000000001 70.52935780000001 13.8727111 68.04095450000001 13.8727111 64.98242180000001 C 13.8727112 62.4536133 12.1718445 60.3150024 9.8540344 59.6500244 z" stroke-linecap="round" />
</g>
<g transform="matrix(1 0 0 1 504.56 489.51)"  >
<path style="stroke: none; stroke-width: 1; stroke-dasharray: none; stroke-linecap: butt; stroke-dashoffset: 0; stroke-linejoin: miter; stroke-miterlimit: 4; fill: rgb(21,178,21); fill-rule: nonzero; opacity: 1;" vector-effect="non-scaling-stroke"  transform=" translate(-13.17, -11.39)" d="M 6.7895203 13.37677 L 6.7895203 18.739868100000002 C 6.7895203 19.5863036 7.4753113 20.272094700000004 8.3217469 20.272094700000004 L 22.0367738 20.272094700000004 C 22.883209299999997 20.272094700000004 23.5690614 19.586303700000002 23.5690614 18.739868100000002 C 23.5690614 17.893432500000003 22.883209299999997 17.207580500000002 22.0367738 17.207580500000002 L 9.8540344 17.207580500000002 L 9.8540344 13.379394500000002 C 12.171844499999999 12.714355400000002 13.8727112 10.575805600000002 13.8727112 8.046936000000002 C 13.8727112 4.988403300000002 11.3847962 2.5000000000000027 8.326263399999998 2.5000000000000027 C 5.267730599999997 2.5000000000000027 2.779327399999999 4.9884033000000025 2.779327399999999 8.046936000000002 C 2.7793274 10.5725098 4.4761047 12.7088623 6.7895203 13.37677 z" stroke-linecap="round" />
</g>
<g transform="matrix(1 0 0 1 503.38 514.64)"  >
<path style="stroke: none; stroke-width: 1; stroke-dasharray: none; stroke-linecap: butt; stroke-dashoffset: 0; stroke-linejoin: miter; stroke-miterlimit: 4; fill: rgb(21,178,21); fill-rule: nonzero; opacity: 1;" vector-effect="non-scaling-stroke"  transform=" translate(-11.99, -36.51)" d="M 8.3262634 42.0614014 C 10.8534851 42.0614014 12.990936300000001 40.362732 13.6573791 38.0471802 L 19.6680603 38.0471802 C 20.5144958 38.0471802 21.200286900000002 37.3613892 21.200286900000002 36.5149536 C 21.200286900000002 35.668518 20.5144959 34.982665999999995 19.6680603 34.982665999999995 L 13.6573791 34.982665999999995 C 12.9909362 32.66693109999999 10.8534851 30.967956499999993 8.3262634 30.967956499999993 C 5.2677306999999995 30.967956499999993 2.7793274000000006 33.45642089999999 2.7793274000000006 36.51495359999999 C 2.7793274000000006 39.57348629999999 5.2677307 42.0614014 8.3262634 42.0614014 z" stroke-linecap="round" />
</g>
<g transform="matrix(NaN NaN NaN NaN 0 0)"  >
<g style=""   >
</g>
</g>
<g transform="matrix(NaN NaN NaN NaN 0 0)"  >
<g style=""   >
</g>
</g>
<g transform="matrix(NaN NaN NaN NaN 0 0)"  >
<g style=""   >
</g>
</g>
<g transform="matrix(NaN NaN NaN NaN 0 0)"  >
<g style=""   >
</g>
</g>
<g transform="matrix(NaN NaN NaN NaN 0 0)"  >
<g style=""   >
</g>
</g>
<g transform="matrix(NaN NaN NaN NaN 0 0)"  >
<g style=""   >
</g>
</g>
<g transform="matrix(NaN NaN NaN NaN 0 0)"  >
<g style=""   >
</g>
</g>
<g transform="matrix(NaN NaN NaN NaN 0 0)"  >
<g style=""   >
</g>
</g>
</svg>